<svg width="42" height="42" viewBox="0 0 42 42" fill="none" xmlns="http://www.w3.org/2000/svg">
<path d="M8.33333 25H25V20.8333H8.33333V25ZM8.33333 18.75H33.3333V14.5833H8.33333V18.75ZM8.33333 12.5H33.3333V8.33333H8.33333V12.5ZM0 41.6667V4.16667C0 3.02083 0.407986 2.03993 1.22396 1.22396C2.03993 0.407986 3.02083 0 4.16667 0H37.5C38.6458 0 39.6267 0.407986 40.4427 1.22396C41.2587 2.03993 41.6667 3.02083 41.6667 4.16667V29.1667C41.6667 30.3125 41.2587 31.2934 40.4427 32.1094C39.6267 32.9253 38.6458 33.3333 37.5 33.3333H8.33333L0 41.6667ZM6.5625 29.1667H37.5V4.16667H4.16667V31.5104L6.5625 29.1667Z" fill="#FF8055"/>
</svg>
