<svg width="50" height="52" viewBox="0 0 50 52" fill="none" xmlns="http://www.w3.org/2000/svg">
<path d="M4.1665 21.4243C4.1665 17.8536 4.93907 14.5775 6.48421 11.5959C8.02935 8.61436 10.104 6.14163 12.7082 4.17773L15.1561 7.60563C13.0728 9.17675 11.4148 11.1585 10.1821 13.5509C8.94949 15.9433 8.33317 18.5678 8.33317 21.4243H4.1665ZM41.6665 21.4243C41.6665 18.5678 41.0502 15.9433 39.8175 13.5509C38.5849 11.1585 36.9269 9.17675 34.8436 7.60563L37.2915 4.17773C39.8957 6.14163 41.9703 8.61436 43.5155 11.5959C45.0606 14.5775 45.8332 17.8536 45.8332 21.4243H41.6665ZM8.33317 40.7063V36.4214H12.4998V21.4243C12.4998 18.4606 13.3679 15.8272 15.104 13.5241C16.8401 11.221 19.0971 9.71236 21.8748 8.99821V7.49851C21.8748 6.60583 22.1787 5.84705 22.7863 5.22217C23.3939 4.59729 24.1318 4.28486 24.9998 4.28486C25.8679 4.28486 26.6057 4.59729 27.2134 5.22217C27.821 5.84705 28.1248 6.60583 28.1248 7.49851V8.99821C30.9026 9.71236 33.1596 11.221 34.8957 13.5241C36.6318 15.8272 37.4998 18.4606 37.4998 21.4243V36.4214H41.6665V40.7063H8.33317ZM24.9998 47.1336C23.854 47.1336 22.8731 46.714 22.0571 45.8749C21.2412 45.0358 20.8332 44.027 20.8332 42.8487H29.1665C29.1665 44.027 28.7585 45.0358 27.9425 45.8749C27.1266 46.714 26.1457 47.1336 24.9998 47.1336ZM16.6665 36.4214H33.3332V21.4243C33.3332 19.0677 32.5172 17.0502 30.8853 15.372C29.2533 13.6937 27.2915 12.8546 24.9998 12.8546C22.7082 12.8546 20.7464 13.6937 19.1144 15.372C17.4825 17.0502 16.6665 19.0677 16.6665 21.4243V36.4214Z" fill="#FF8055"/>
</svg>
