<svg width="317" height="94" viewBox="0 0 317 94" fill="none" xmlns="http://www.w3.org/2000/svg">
<path d="M52.7432 43.2012H56.105V33.5889H61.3594V43.2012H69.3032V48.4556H61.3594V61.6787C61.3594 62.2432 61.5752 62.7329 62.0068 63.1479C62.4551 63.5464 62.9863 63.7456 63.6006 63.7456H69.3032V69H63.5259C62.1646 69 60.9194 68.6763 59.7905 68.0288C58.6782 67.3647 57.7817 66.4849 57.1011 65.3892C56.437 64.2769 56.105 63.0483 56.105 61.7036V48.4556H52.7432V43.2012ZM73.8105 52.5146C73.8105 50.8047 74.2256 49.2441 75.0557 47.833C75.9023 46.4219 77.0312 45.3013 78.4424 44.4712C79.8535 43.6245 81.4141 43.2012 83.124 43.2012H88.752C90.4619 43.2012 92.0225 43.6245 93.4336 44.4712C94.8447 45.3013 95.9653 46.4219 96.7954 47.833C97.6421 49.2441 98.0654 50.8047 98.0654 52.5146V59.6865C98.0654 61.3965 97.6421 62.957 96.7954 64.3682C95.9653 65.7793 94.8447 66.9082 93.4336 67.7549C92.0225 68.585 90.4619 69 88.752 69H83.124C81.4141 69 79.8535 68.585 78.4424 67.7549C77.0312 66.9082 75.9023 65.7793 75.0557 64.3682C74.2256 62.957 73.8105 61.3965 73.8105 59.6865V52.5146ZM79.0649 59.6367C79.0649 60.7656 79.4634 61.7368 80.2603 62.5503C81.0571 63.3472 82.0117 63.7456 83.124 63.7456H88.752C89.8809 63.7456 90.8354 63.3472 91.6157 62.5503C92.4126 61.7368 92.811 60.7656 92.811 59.6367V52.5645C92.811 51.4355 92.4126 50.4727 91.6157 49.6758C90.8354 48.8623 89.8809 48.4556 88.752 48.4556H83.124C82.0117 48.4556 81.0571 48.8623 80.2603 49.6758C79.4634 50.4727 79.0649 51.4355 79.0649 52.5645V59.6367ZM103.793 50.4229C103.793 49.0947 104.125 47.8828 104.789 46.7871C105.47 45.6914 106.366 44.8198 107.479 44.1724C108.607 43.5249 109.853 43.2012 111.214 43.2012H116.966V48.4307H111.214C110.616 48.4307 110.102 48.6382 109.67 49.0532C109.255 49.4517 109.047 49.9414 109.047 50.5225V69H103.793V50.4229ZM125.807 43.2012L132.505 61.0811L139.354 43.2012H145.156L131.459 78.7119H125.707L129.716 68.1533L120.229 43.2012H125.807ZM149.663 42.1553C149.663 40.5781 150.053 39.1421 150.833 37.8472C151.63 36.5522 152.693 35.5229 154.021 34.7593C155.366 33.979 156.843 33.5889 158.454 33.5889H176.782V38.8184H158.454C157.491 38.8184 156.661 39.1587 155.963 39.8394C155.266 40.52 154.917 41.3418 154.917 42.3047V44.7451C154.917 45.625 155.266 46.3804 155.963 47.0112C156.661 47.6421 157.491 47.9575 158.454 47.9575H169.734C171.361 47.9575 172.839 48.3477 174.167 49.1279C175.495 49.8916 176.549 50.9292 177.33 52.2407C178.126 53.5356 178.525 54.9717 178.525 56.5488V60.4087C178.525 61.9858 178.126 63.4302 177.33 64.7417C176.549 66.0366 175.495 67.0742 174.167 67.8545C172.839 68.6182 171.361 69 169.734 69H149.688V63.7456H169.734C170.714 63.7456 171.544 63.4219 172.225 62.7744C172.922 62.1104 173.271 61.3135 173.271 60.3838V56.5737C173.271 55.644 172.922 54.8472 172.225 54.1831C171.544 53.519 170.714 53.187 169.734 53.187H158.454C156.843 53.187 155.366 52.8135 154.021 52.0664C152.693 51.3027 151.63 50.2817 150.833 49.0034C150.053 47.7251 149.663 46.314 149.663 44.77V42.1553ZM184.277 48.4556C184.277 47.0112 184.792 45.7744 185.821 44.7451C186.851 43.7158 188.087 43.2012 189.532 43.2012H198.671C200.381 43.2012 201.941 43.6245 203.353 44.4712C204.764 45.3013 205.884 46.4136 206.714 47.8081C207.561 49.2026 207.984 50.7549 207.984 52.4648V59.6865C207.984 61.3965 207.561 62.957 206.714 64.3682C205.884 65.7793 204.764 66.9082 203.353 67.7549C201.941 68.585 200.381 69 198.671 69H192.52V63.7456H198.671C199.8 63.7456 200.754 63.3472 201.535 62.5503C202.332 61.7368 202.73 60.7656 202.73 59.6367V52.5146C202.73 51.3857 202.332 50.4312 201.535 49.6509C200.754 48.854 199.8 48.4556 198.671 48.4556H189.532V78.6123H184.277V48.4556ZM213.961 33.5889H219.215V43.2012H227.333C229.126 43.2012 230.753 43.6245 232.214 44.4712C233.692 45.3013 234.862 46.4219 235.726 47.833C236.605 49.2275 237.045 50.7798 237.045 52.4897V69H231.791V52.5645C231.791 51.4688 231.343 50.5142 230.446 49.7007C229.566 48.8706 228.529 48.4556 227.333 48.4556H219.215V69H213.961V33.5889ZM243.047 48.5303C243.047 47.0527 243.586 45.7993 244.666 44.77C245.745 43.7241 247.04 43.2012 248.55 43.2012H259.308C260.686 43.2012 261.931 43.5415 263.043 44.2222C264.172 44.8862 265.069 45.791 265.733 46.9365C266.414 48.0654 266.754 49.3188 266.754 50.6968V51.4189C266.754 52.7803 266.414 54.0254 265.733 55.1543C265.069 56.2666 264.172 57.1631 263.043 57.8438C261.931 58.5078 260.686 58.8398 259.308 58.8398H251.29V53.6104H259.358C259.956 53.6104 260.462 53.3945 260.877 52.9629C261.309 52.5312 261.524 52.0083 261.524 51.394V50.6968C261.524 50.0659 261.309 49.5347 260.877 49.103C260.462 48.6714 259.956 48.4556 259.358 48.4556H248.301V61.7036C248.301 62.2681 248.492 62.7495 248.874 63.1479C249.256 63.5464 249.721 63.7456 250.269 63.7456H264.936V69H250.269C248.94 69 247.729 68.6763 246.633 68.0288C245.537 67.3647 244.666 66.4849 244.018 65.3892C243.371 64.2769 243.047 63.0566 243.047 61.7285V48.5303ZM272.481 50.4229C272.481 49.0947 272.813 47.8828 273.478 46.7871C274.158 45.6914 275.055 44.8198 276.167 44.1724C277.296 43.5249 278.541 43.2012 279.902 43.2012H285.655V48.4307H279.902C279.305 48.4307 278.79 48.6382 278.358 49.0532C277.943 49.4517 277.736 49.9414 277.736 50.5225V69H272.481V50.4229ZM290.411 48.5303C290.411 47.0527 290.951 45.7993 292.03 44.77C293.109 43.7241 294.404 43.2012 295.915 43.2012H306.672C308.05 43.2012 309.295 43.5415 310.408 44.2222C311.537 44.8862 312.433 45.791 313.097 46.9365C313.778 48.0654 314.118 49.3188 314.118 50.6968V51.4189C314.118 52.7803 313.778 54.0254 313.097 55.1543C312.433 56.2666 311.537 57.1631 310.408 57.8438C309.295 58.5078 308.05 58.8398 306.672 58.8398H298.654V53.6104H306.722C307.32 53.6104 307.826 53.3945 308.241 52.9629C308.673 52.5312 308.889 52.0083 308.889 51.394V50.6968C308.889 50.0659 308.673 49.5347 308.241 49.103C307.826 48.6714 307.32 48.4556 306.722 48.4556H295.666V61.7036C295.666 62.2681 295.856 62.7495 296.238 63.1479C296.62 63.5464 297.085 63.7456 297.633 63.7456H312.3V69H297.633C296.305 69 295.093 68.6763 293.997 68.0288C292.901 67.3647 292.03 66.4849 291.382 65.3892C290.735 64.2769 290.411 63.0566 290.411 61.7285V48.5303Z" fill="#FF6430"/>
<path d="M4.51172 33.4697C4.51172 31.0885 5.10075 28.9204 6.27881 26.9653C7.48193 25.0103 9.0861 23.4562 11.0913 22.3032C13.1216 21.1252 15.3524 20.5361 17.7837 20.5361H45.4556V28.4316H17.7837C16.3299 28.4316 15.0767 28.9455 14.0239 29.9731C12.9712 31.0008 12.4448 32.2415 12.4448 33.6953V37.3799C12.4448 38.7083 12.9712 39.8488 14.0239 40.8013C15.0767 41.7537 16.3299 42.23 17.7837 42.23H34.8154C37.2718 42.23 39.5026 42.819 41.5078 43.9971C43.513 45.1501 45.1047 46.7166 46.2827 48.6968C47.4858 50.6519 48.0874 52.82 48.0874 55.2012V61.0288C48.0874 63.41 47.4858 65.5907 46.2827 67.5708C45.1047 69.5259 43.513 71.0924 41.5078 72.2705C39.5026 73.4235 37.2718 74 34.8154 74H4.54932V66.0669H34.8154C36.2943 66.0669 37.5475 65.5781 38.5752 64.6006C39.6279 63.598 40.1543 62.3949 40.1543 60.9912V55.2388C40.1543 53.8351 39.6279 52.632 38.5752 51.6294C37.5475 50.6268 36.2943 50.1255 34.8154 50.1255H17.7837C15.3524 50.1255 13.1216 49.5615 11.0913 48.4336C9.0861 47.2806 7.48193 45.7391 6.27881 43.8091C5.10075 41.8791 4.51172 39.7485 4.51172 37.4175V33.4697Z" fill="#FF6430"/>
<line x1="16" y1="32.25" x2="44" y2="32.25" stroke="#D3C8C8" stroke-width="1.5"/>
<line x1="16" y1="37.25" x2="36" y2="37.25" stroke="#D3C8C8" stroke-width="1.5"/>
<line x1="16" y1="55.25" x2="36" y2="55.25" stroke="#D3C8C8" stroke-width="1.5"/>
<line x1="8" y1="61.25" x2="36" y2="61.25" stroke="#D3C8C8" stroke-width="1.5"/>
</svg>
